<svg width="45" height="46" viewBox="0 0 45 46" fill="none" xmlns="http://www.w3.org/2000/svg">
<path d="M36.5625 10.4219H31.5018L29.0039 6.58914C28.9074 6.44133 28.7767 6.32018 28.6234 6.23648C28.47 6.15277 28.2988 6.10911 28.125 6.10938H16.875C16.7012 6.10911 16.53 6.15277 16.3766 6.23648C16.2233 6.32018 16.0926 6.44133 15.9961 6.58914L13.4965 10.4219H8.4375C7.41186 10.4219 6.42822 10.8384 5.70299 11.5797C4.97775 12.3211 4.57031 13.3266 4.57031 14.375V34.5C4.57031 35.5484 4.97775 36.5539 5.70299 37.2953C6.42822 38.0366 7.41186 38.4531 8.4375 38.4531H36.5625C37.5881 38.4531 38.5718 38.0366 39.297 37.2953C40.0223 36.5539 40.4297 35.5484 40.4297 34.5V14.375C40.4297 13.3266 40.0223 12.3211 39.297 11.5797C38.5718 10.8384 37.5881 10.4219 36.5625 10.4219ZM38.3203 34.5C38.3203 34.9766 38.1351 35.4336 37.8055 35.7706C37.4758 36.1076 37.0287 36.2969 36.5625 36.2969H8.4375C7.9713 36.2969 7.52419 36.1076 7.19454 35.7706C6.86489 35.4336 6.67969 34.9766 6.67969 34.5V14.375C6.67969 13.8984 6.86489 13.4414 7.19454 13.1044C7.52419 12.7674 7.9713 12.5781 8.4375 12.5781H14.0625C14.2363 12.5784 14.4075 12.5347 14.5609 12.451C14.7142 12.3673 14.8449 12.2462 14.9414 12.0984L17.4393 8.26563H27.559L30.0586 12.0984C30.1551 12.2462 30.2858 12.3673 30.4391 12.451C30.5925 12.5347 30.7637 12.5784 30.9375 12.5781H36.5625C37.0287 12.5781 37.4758 12.7674 37.8055 13.1044C38.1351 13.4414 38.3203 13.8984 38.3203 14.375V34.5ZM22.5 16.1719C21.0398 16.1719 19.6124 16.6145 18.3983 17.4438C17.1842 18.273 16.238 19.4517 15.6792 20.8307C15.1204 22.2097 14.9742 23.7271 15.259 25.1911C15.5439 26.655 16.2471 27.9997 17.2796 29.0552C18.3121 30.1106 19.6276 30.8294 21.0597 31.1206C22.4918 31.4118 23.9762 31.2624 25.3253 30.6912C26.6743 30.1199 27.8274 29.1526 28.6386 27.9116C29.4498 26.6705 29.8828 25.2114 29.8828 23.7188C29.8828 21.7172 29.105 19.7976 27.7204 18.3823C26.3359 16.967 24.458 16.1719 22.5 16.1719ZM22.5 29.1094C21.457 29.1094 20.4374 28.7932 19.5702 28.2009C18.703 27.6086 18.0271 26.7667 17.628 25.7817C17.2288 24.7966 17.1244 23.7128 17.3279 22.6671C17.5314 21.6214 18.0336 20.6609 18.7711 19.907C19.5086 19.1531 20.4483 18.6397 21.4712 18.4317C22.4942 18.2237 23.5545 18.3305 24.5181 18.7385C25.4817 19.1465 26.3053 19.8374 26.8847 20.7239C27.4642 21.6104 27.7734 22.6526 27.7734 23.7188C27.7734 25.1484 27.2178 26.5196 26.2289 27.5305C25.2399 28.5414 23.8986 29.1094 22.5 29.1094Z" fill="black"/>
</svg>
